<?xml version="1.0" ?><svg id="Layer_1" style="enable-background:new 0 0 512 512;" version="1.1" viewBox="0 0 512 512" xml:space="preserve" xmlns="http://www.w3.org/2000/svg" xmlns:xlink="http://www.w3.org/1999/xlink"><style type="text/css">
	.st0{fill-rule:evenodd;clip-rule:evenodd;fill:#DFDFE0;}
	.st1{fill:#F58321;}
	.st2{fill:#626464;}
</style><g><path class="st0" d="M489.2,94.5H21.9c-9.1,0-14.8,1.4-17.9,4.3c-2.7,3.3-4,8.7-4,16.7v29.9v24.1v172.3V367v28.8   c0,14.3,7.4,21.7,21.9,21.7h467.3c15.2,0,22.8-7.4,22.8-21.7V367v-25.2V169.4v-24.1v-29.9C512,101.3,504.4,94.5,489.2,94.5z"/><g><path class="st1" d="M302.6,192.5c0,0,11.5,8,0,9.5c0,0-42.9,5-74.8,34.9c0,0-47.9,41.9-65.8,87.7c0,0-6,0-4-9    c2-9,14-48.3,67.3-96.7C225.4,219,276.7,172.1,302.6,192.5 M166.5,198.5c0.5,11,10,52.8,10,52.8c3.5,8.5,6.5,0,6.5,0    c11.5-34.4-12-54.3-12-54.3C165,193.5,166.5,198.5,166.5,198.5"/><path class="st2" d="M74,227.2c4.3-1.1,10.9-1.7,17.3-1.7c6,0,12.9,1,17.7,4.5c4.6,3,7.2,7.7,7.2,14.2c0,8.3-3.9,14.7-9,18.7    c-5.4,4.3-13.3,6.2-21.4,6.2c-2.4,0-4.4-0.3-5.8-0.4l-4.6,24h-14L74,227.2z M82.2,257c1.6,0.3,3.1,0.5,5.5,0.5    c8.5,0,14.2-5.4,14.2-12.2c0-6.3-4.6-8.4-10.1-8.4c-2.7,0-4.7,0.2-5.8,0.4L82.2,257z"/><path class="st2" d="M144.5,292.6c0.1-2.8,0.4-6.1,0.6-9.6h-0.2c-4.6,8-10.8,10.7-16.4,10.7c-8.7,0-14.6-6.7-14.6-16.8    c0-16.3,10.9-33.8,34.7-33.8c5.8,0,12,1.1,15.9,2.4l-4.9,25.3c-1.2,6.2-2.2,15.7-2,21.8H144.5z M148.3,254.3    c-1.1-0.2-2.3-0.4-3.8-0.4c-9.2,0-15.9,11.3-15.9,20.3c0,4.8,1.9,8,5.8,8c4.3,0,9.7-4.8,11.9-16.7L148.3,254.3z"/><path class="st2" d="M234.4,293.7c-12.4,0-20.6-8-20.6-20c0-16.7,11.7-30.6,28.9-30.6c13.1,0,20.6,8.9,20.6,20    C263.3,280.7,251.2,293.7,234.4,293.7L234.4,293.7z M236.3,282.8c7.7,0,12.2-11.4,12.2-19.6c0-4.6-2-9.2-7.6-9.2    c-8.2,0-12.4,11.9-12.4,19.4C228.5,279.1,231.4,282.8,236.3,282.8L236.3,282.8z"/><path class="st2" d="M265.3,292.6l6.1-32.7c1.2-6.1,2-11.4,2.6-15.7h12.6l-0.9,8h0.2c4.6-6.2,10.6-9.1,16.9-9.1    c7.9,0,12.5,4.9,12.5,13.3c0,2.2-0.4,5.7-0.8,8.1l-5.3,28.1h-14.3l5-26.8c0.3-1.7,0.5-3.6,0.5-5.3c0-3.5-1.2-5.8-4.9-5.8    c-4.7,0-10,5.8-12.1,16.5l-4,21.5H265.3z"/><path class="st2" d="M359.4,289.9c-5.6,2.9-12.7,3.9-18,3.9c-13.9,0-21-7.8-21-20.5c0-14.8,10.7-30.1,28.2-30.1    c9.8,0,16.8,5.5,16.8,14.6c0,12.3-12,16.7-31.4,16.2c0,1.4,0.5,3.6,1.5,4.9c1.9,2.5,5.1,3.8,9.3,3.8c5.2,0,9.7-1.2,13.6-3.1    L359.4,289.9z M352,257.6c0-2.4-2-4.1-5.2-4.1c-6.6,0-10.4,5.5-11.4,10C346.5,263.6,352,262.1,352,257.6L352,257.6z"/><path class="st2" d="M406.3,289.9c-5.6,2.9-12.7,3.9-18,3.9c-13.9,0-21-7.8-21-20.5c0-14.8,10.7-30.1,28.2-30.1    c9.8,0,16.8,5.5,16.8,14.6c0,12.3-12,16.7-31.4,16.2c0,1.4,0.5,3.6,1.5,4.9c1.9,2.5,5.1,3.8,9.3,3.8c5.2,0,9.7-1.2,13.6-3.1    L406.3,289.9z M399,257.6c0-2.4-2-4.1-5.2-4.1c-6.6,0-10.4,5.5-11.4,10C393.4,263.6,399,262.1,399,257.6L399,257.6z"/><path class="st2" d="M412.7,292.6l5.5-28.8c1.3-7.3,2-15.4,2.5-19.6H433c-0.2,3.3-0.5,6.5-0.9,10h0.4c3.4-6.5,8.7-11.1,15.3-11.1    c1,0,1.9,0.1,2.7,0.1l-2.8,14c-0.6-0.1-1.4-0.1-2.2-0.1c-9,0-13.4,8-15.1,17.5l-3.4,18H412.7z"/></g></g></svg>